[Header]
FileType HTR
DataType HTRS
FileVersion 1
NumSegments 36
NumFrames 6
DataFrameRate 120
EulerRotationOrder ZYX
CalibrationUnits mm
RotationUnits Degrees
GlobalAxisofGravity Y
BoneLengthAxis Y
ScaleFactor 1.0
[SegmentNames&Hierarchy]
Hips	GLOBAL
Spine	Hips
Spine1	Spine
Spine2	Spine1
Spine3	Spine2
Neck	Spine3
Head	Neck
HeadEnd	Head
RightShoulder	Spine3
RightArm	RightShoulder
RightForeArm	RightArm
RightForeArmRoll	RightForeArm
RightHand	RightForeArmRoll
RightHandEnd	RightHand
R_FingersEnd	RightHandEnd
RightHandThumb1	RightHand
RightHandThumb2	RightHandThumb1
LeftShoulder	Spine3
LeftArm	LeftShoulder
LeftForeArm	LeftArm
LeftForeArmRoll	LeftForeArm
LeftHand	LeftForeArmRoll
LeftHandEnd	LeftHand
L_FingersEnd	LeftHandEnd
LeftHandThumb1	LeftHand
LeftHandThumb2	LeftHandThumb1
RightUpLeg	Hips
RightLeg	RightUpLeg
RightFoot	RightLeg
RightToeBase	RightFoot
RightToeBaseEnd	RightToeBase
LeftUpLeg	Hips
LeftLeg	LeftUpLeg
LeftFoot	LeftLeg
LeftToeBase	LeftFoot
LeftToeBaseEnd	LeftToeBase
[BasePosition]
Hips	0	0	0	0	0	0	1
Spine	0	0	0	-10	-0	0	1
Spine1	0	0	0	5	0	0	1
Spine2	0	0	0	5	0	0	1
Spine3	0	0	0	0	0	0	1
Neck	0	0	0	10	0	0	1
Head	0	0	0	-10	-0	0	1
HeadEnd	0	0	0	0	0	0	1
RightShoulder	0	0	0	-180	-0	-180	1
RightArm	0	0	0	0	0	0	1
RightForeArm	0	0	0	0	0	0	1
RightForeArmRoll	0	0	0	0	0	0	1
RightHand	0	0	0	0	0	0	1
RightHandEnd	0	0	0	-90	-0	0	1
R_FingersEnd	0	0	0	0	0	0	1
RightHandThumb1	0	0	0	170	-0	-15	1
RightHandThumb2	0	0	0	0	0	0	1
LeftShoulder	0	0	0	0	0	0	1
LeftArm	0	0	0	0	0	0	1
LeftForeArm	0	0	0	0	0	0	1
LeftForeArmRoll	0	0	0	0	0	0	1
LeftHand	0	0	0	0	0	0	1
LeftHandEnd	0	0	0	90	0	0	1
L_FingersEnd	0	0	0	0	0	0	1
LeftHandThumb1	0	0	0	170	-0	-15	1
LeftHandThumb2	0	0	0	0	0	0	1
RightUpLeg	0	0	0	-0	90	0	1
RightLeg	0	0	0	0	0	0	1
RightFoot	0	0	0	0	-0	-70	1
RightToeBase	0	0	0	0	-0	-20	1
RightToeBaseEnd	0	0	0	0	0	0	1
LeftUpLeg	0	0	0	-0	90	0	1
LeftLeg	0	0	0	0	0	0	1
LeftFoot	0	0	0	0	-0	-70	1
LeftToeBase	0	0	0	0	-0	-20	1
LeftToeBaseEnd	0	0	0	0	0	0	1
[Hips]
23	-6.206769943	970.447998	-20.57588577	-89.35250854	-0.1741966605	0.2288206667	1.0
24	-6.156778812	970.4776001	-20.46345139	-89.34676361	-0.1671708077	0.2269849479	1.0
25	-6.090708256	970.5048828	-20.342062	-89.33582306	-0.1599084139	0.2272719592	1.0
26	-6.033503532	970.5203247	-20.24991798	-89.31639862	-0.1520472765	0.2303875536	1.0
27	-5.980961323	970.5205688	-20.19186211	-89.29528809	-0.144767195	0.237659812	1.0
28	-5.916452885	970.5117798	-20.14242935	-89.27477264	-0.1380024701	0.2465076447	1.0
[Spine]
23	0	44.87670517	67.31505585	-0.2828060389	0.4267083704	0.08096697927	1.0
24	0	44.87670517	67.31505585	-0.2752079368	0.4200596213	0.0805067122	1.0
25	0	44.87670517	67.31505585	-0.2715150118	0.4147442281	0.07976128161	1.0
26	0	44.87670517	67.31505585	-0.2736281753	0.4112190902	0.07853543758	1.0
27	0	44.87670517	67.31505585	-0.2793526351	0.40778476	0.07689263672	1.0
28	0	44.87670517	67.31505585	-0.2860575318	0.4046878815	0.07522456348	1.0
[Spine1]
23	0	0	89.75341034	-0.6882559061	0.05190243199	0.002058072947	1.0
24	0	0	89.75341034	-0.6747605801	0.05538369715	0.003460333217	1.0
25	0	0	89.75341034	-0.6678603888	0.05639657006	0.004018976819	1.0
26	0	0	89.75341034	-0.6706542373	0.05381830782	0.003346559592	1.0
27	0	0	89.75341034	-0.6795602441	0.04881584644	0.001946698874	1.0
28	0	0	89.75341034	-0.6902922392	0.04304014891	0.0003134316648	1.0
[Spine2]
23	0	0	89.75341034	1.412716389	0.4138700962	0.3736652136	1.0
24	0	0	89.75341034	1.394916534	0.4112105966	0.376312077	1.0
25	0	0	89.75341034	1.384962201	0.4121726453	0.3761192858	1.0
26	0	0	89.75341034	1.386027098	0.4183472693	0.3718191981	1.0
27	0	0	89.75341034	1.396615267	0.4302693009	0.3658061624	1.0
28	0	0	89.75341034	1.410706758	0.4439578056	0.3591367304	1.0
[Spine3]
23	0	0	89.75341034	0.1328017116	-0.4273550212	-0.03828648105	1.0
24	0	0	89.75341034	0.1274668425	-0.4291145205	-0.03219359741	1.0
25	0	0	89.75341034	0.1246034279	-0.4288727045	-0.03064022213	1.0
26	0	0	89.75341034	0.1252931058	-0.4256499112	-0.03577096015	1.0
27	0	0	89.75341034	0.1286096275	-0.4199372828	-0.04552840441	1.0
28	0	0	89.75341034	0.1328140348	-0.4135706425	-0.05663025379	1.0
[Neck]
23	0	-33.65752792	235.6027069	-1.252648115	0.1148716956	-0.1697424203	1.0
24	0	-33.65752792	235.6027069	-1.232977509	0.1190149188	-0.1880708337	1.0
25	0	-33.65752792	235.6027069	-1.222144246	0.1247164086	-0.1957076192	1.0
26	0	-33.65752792	235.6027069	-1.224549174	0.133471489	-0.187545687	1.0
27	0	-33.65752792	235.6027069	-1.234480381	0.1445418	-0.1692060828	1.0
28	0	-33.65752792	235.6027069	-1.246319771	0.1551166475	-0.1479639858	1.0
[Head]
23	0	0	123.4109421	-1.047612906	-0.2489748001	-1.021391869	1.0
24	0	0	123.4109421	-1.054282427	-0.2428784817	-1.033266783	1.0
25	0	0	123.4109421	-1.058175564	-0.240527302	-1.040347934	1.0
26	0	0	123.4109421	-1.057924509	-0.2444491237	-1.040871143	1.0
27	0	0	123.4109421	-1.055086851	-0.2525546849	-1.038381577	1.0
28	0	0	123.4109421	-1.051572561	-0.260723263	-1.034190774	1.0
[HeadEnd]
23	0	0	145.2883301	0	0	0	1.0
24	0	0	145.2883301	0	0	0	1.0
25	0	0	145.2883301	0	0	0	1.0
26	0	0	145.2883301	0	0	0	1.0
27	0	0	145.2883301	0	0	0	1.0
28	0	0	145.2883301	0	0	0	1.0
[RightShoulder]
23	-30.74827576	-51.24713135	166.0407104	-4.575507164	-5.892104149	0.8902224898	1.0
24	-30.74827576	-51.24713135	166.0407104	-4.570433617	-5.89074707	0.9164915681	1.0
25	-30.74827576	-51.24713135	166.0407104	-4.565414906	-5.891050339	0.9320342541	1.0
26	-30.74827576	-51.24713135	166.0407104	-4.560408115	-5.89410305	0.9326328039	1.0
27	-30.74827576	-51.24713135	166.0407104	-4.556093693	-5.898156166	0.924456954	1.0
28	-30.74827576	-51.24713135	166.0407104	-4.552056789	-5.902070999	0.9123693109	1.0
[RightArm]
23	152.7164459	0	0	-25.1588974	-69.05740356	4.732316971	1.0
24	152.7164459	0	0	-25.16018105	-69.04400635	4.708004951	1.0
25	152.7164459	0	0	-25.13759995	-69.03321075	4.672538757	1.0
26	152.7164459	0	0	-25.07969475	-69.02531433	4.619091034	1.0
27	152.7164459	0	0	-24.99995422	-69.01976013	4.552504063	1.0
28	152.7164459	0	0	-24.91404724	-69.0163269	4.484507084	1.0
[RightForeArm]
23	297.8946228	0	0	0	0	-31.18680573	1.0
24	297.8946228	0	0	0	0	-31.17643166	1.0
25	297.8946228	0	0	0	0	-31.17362595	1.0
26	297.8946228	0	0	0	0	-31.1816597	1.0
27	297.8946228	0	0	0	0	-31.19580841	1.0
28	297.8946228	0	0	0	0	-31.21225166	1.0
[RightForeArmRoll]
23	122.9768982	0	0	4.670521736	0	0	1.0
24	122.9768982	0	0	4.60456562	0	0	1.0
25	122.9768982	0	0	4.561522484	0	0	1.0
26	122.9768982	0	0	4.552179337	0	0	1.0
27	122.9768982	0	0	4.559838295	0	0	1.0
28	122.9768982	0	0	4.572752953	0	0	1.0
[RightHand]
23	127.1009369	0	0	-2.729656785e-007	8.056987762	-3.229911804	1.0
24	127.1009369	0	0	7.417634151e-007	8.094825745	-3.257557154	1.0
25	127.1009369	0	0	5.133079412e-006	8.115390778	-3.268815517	1.0
26	127.1009369	0	0	1.714728387e-005	8.112151146	-3.256578922	1.0
27	127.1009369	0	0	3.449923679e-005	8.095902443	-3.22769022	1.0
28	127.1009369	0	0	4.934861863e-005	8.073249817	-3.193011761	1.0
[RightHandEnd]
23	72.05677795	0	0	0	0	0	1.0
24	72.05677795	0	0	0	0	0	1.0
25	72.05677795	0	0	0	0	0	1.0
26	72.05677795	0	0	0	0	0	1.0
27	72.05677795	0	0	0	0	0	1.0
28	72.05677795	0	0	0	0	0	1.0
[R_FingersEnd]
23	72.05677795	0	0	0	0	0	1.0
24	72.05677795	0	0	0	0	0	1.0
25	72.05677795	0	0	0	0	0	1.0
26	72.05677795	0	0	0	0	0	1.0
27	72.05677795	0	0	0	0	0	1.0
28	72.05677795	0	0	0	0	0	1.0
[RightHandThumb1]
23	28.82271004	-48.03784943	19.2151413	0	0	0	1.0
24	28.82271004	-48.03784943	19.2151413	0	0	0	1.0
25	28.82271004	-48.03784943	19.2151413	0	0	0	1.0
26	28.82271004	-48.03784943	19.2151413	0	0	0	1.0
27	28.82271004	-48.03784943	19.2151413	0	0	0	1.0
28	28.82271004	-48.03784943	19.2151413	0	0	0	1.0
[RightHandThumb2]
23	72.05677795	0	0	0	0	0	1.0
24	72.05677795	0	0	0	0	0	1.0
25	72.05677795	0	0	0	0	0	1.0
26	72.05677795	0	0	0	0	0	1.0
27	72.05677795	0	0	0	0	0	1.0
28	72.05677795	0	0	0	0	0	1.0
[LeftShoulder]
23	30.74827576	-51.24713135	166.0407104	5.476603508	6.033241272	3.015145302	1.0
24	30.74827576	-51.24713135	166.0407104	5.453412056	6.042477608	2.981185913	1.0
25	30.74827576	-51.24713135	166.0407104	5.43913126	6.051521301	2.962197781	1.0
26	30.74827576	-51.24713135	166.0407104	5.43742466	6.060218811	2.964205027	1.0
27	30.74827576	-51.24713135	166.0407104	5.442176819	6.068011761	2.979567289	1.0
28	30.74827576	-51.24713135	166.0407104	5.449728966	6.075665474	3.000461817	1.0
[LeftArm]
23	152.7164459	0	0	4.046555042	68.79667664	-34.1107254	1.0
24	152.7164459	0	0	4.107337475	68.81976318	-34.03408051	1.0
25	152.7164459	0	0	4.153988361	68.82946014	-33.99308014	1.0
26	152.7164459	0	0	4.182765007	68.81976318	-34.0020752	1.0
27	152.7164459	0	0	4.208013058	68.80057526	-34.03881454	1.0
28	152.7164459	0	0	4.227395535	68.77800751	-34.087677	1.0
[LeftForeArm]
23	297.8946228	0	0	0	0	-19.26075745	1.0
24	297.8946228	0	0	0	0	-19.26728821	1.0
25	297.8946228	0	0	0	0	-19.27177811	1.0
26	297.8946228	0	0	0	0	-19.27368927	1.0
27	297.8946228	0	0	0	0	-19.27363586	1.0
28	297.8946228	0	0	0	0	-19.27236557	1.0
[LeftForeArmRoll]
23	122.9768982	0	0	-5.362966537	0	0	1.0
24	122.9768982	0	0	-5.038250923	0	0	1.0
25	122.9768982	0	0	-4.785698414	0	0	1.0
26	122.9768982	0	0	-4.623476505	0	0	1.0
27	122.9768982	0	0	-4.502215862	0	0	1.0
28	122.9768982	0	0	-4.418069363	0	0	1.0
[LeftHand]
23	127.1009369	0	0	-0.0001989048906	-21.10001373	0.5612185597	1.0
24	127.1009369	0	0	-0.0002837426728	-21.02005768	0.7321925759	1.0
25	127.1009369	0	0	-0.0003072624968	-20.97951889	0.8666480184	1.0
26	127.1009369	0	0	-0.0002290679986	-20.99479294	0.9554547071	1.0
27	127.1009369	0	0	-7.981628005e-005	-21.04990768	1.023337483	1.0
28	127.1009369	0	0	7.259370614e-005	-21.11996078	1.072296262	1.0
[LeftHandEnd]
23	72.05677795	0	0	0	0	0	1.0
24	72.05677795	0	0	0	0	0	1.0
25	72.05677795	0	0	0	0	0	1.0
26	72.05677795	0	0	0	0	0	1.0
27	72.05677795	0	0	0	0	0	1.0
28	72.05677795	0	0	0	0	0	1.0
[L_FingersEnd]
23	72.05677795	0	0	0	0	0	1.0
24	72.05677795	0	0	0	0	0	1.0
25	72.05677795	0	0	0	0	0	1.0
26	72.05677795	0	0	0	0	0	1.0
27	72.05677795	0	0	0	0	0	1.0
28	72.05677795	0	0	0	0	0	1.0
[LeftHandThumb1]
23	28.82271004	-48.03784943	-19.2151413	0	0	0	1.0
24	28.82271004	-48.03784943	-19.2151413	0	0	0	1.0
25	28.82271004	-48.03784943	-19.2151413	0	0	0	1.0
26	28.82271004	-48.03784943	-19.2151413	0	0	0	1.0
27	28.82271004	-48.03784943	-19.2151413	0	0	0	1.0
28	28.82271004	-48.03784943	-19.2151413	0	0	0	1.0
[LeftHandThumb2]
23	72.05677795	0	0	0	0	0	1.0
24	72.05677795	0	0	0	0	0	1.0
25	72.05677795	0	0	0	0	0	1.0
26	72.05677795	0	0	0	0	0	1.0
27	72.05677795	0	0	0	0	0	1.0
28	72.05677795	0	0	0	0	0	1.0
[RightUpLeg]
23	-91.21989441	0	-26.64850616	9.587770462	4.407835007	-0.6644089222	1.0
24	-91.21989441	0	-26.64850616	9.610172272	4.405368328	-0.6595724225	1.0
25	-91.21989441	0	-26.64850616	9.622185707	4.405313969	-0.6616227627	1.0
26	-91.21989441	0	-26.64850616	9.619358063	4.408358574	-0.67493999	1.0
27	-91.21989441	0	-26.64850616	9.613794327	4.417881966	-0.6897902489	1.0
28	-91.21989441	0	-26.64850616	9.606435776	4.429805279	-0.7036191225	1.0
[RightLeg]
23	402.8824463	0	0	0	0	15.12332916	1.0
24	402.8824463	0	0	0	0	15.12344742	1.0
25	402.8824463	0	0	0	0	15.1221981	1.0
26	402.8824463	0	0	0	0	15.11930656	1.0
27	402.8824463	0	0	0	0	15.11441422	1.0
28	402.8824463	0	0	0	0	15.10840511	1.0
[RightFoot]
23	435.9781189	0	0	4.346914291	-2.222630024	-15.13880634	1.0
24	435.9781189	0	0	4.355299473	-2.210684299	-15.13399887	1.0
25	435.9781189	0	0	4.364100933	-2.196213007	-15.12892532	1.0
26	435.9781189	0	0	4.373780251	-2.177663326	-15.12302399	1.0
27	435.9781189	0	0	4.384113312	-2.163755417	-15.11682224	1.0
28	435.9781189	0	0	4.394229889	-2.151443243	-15.11118698	1.0
[RightToeBase]
23	183.1846619	0	0	0	0	0.9729591608	1.0
24	183.1846619	0	0	0	0	1.006393075	1.0
25	183.1846619	0	0	0	0	1.012505889	1.0
26	183.1846619	0	0	0	0	0.9777743816	1.0
27	183.1846619	0	0	0	0	0.9157212973	1.0
28	183.1846619	0	0	0	0	0.8466320634	1.0
[RightToeBaseEnd]
23	73.79586792	0	0	0	0	0	1.0
24	73.79586792	0	0	0	0	0	1.0
25	73.79586792	0	0	0	0	0	1.0
26	73.79586792	0	0	0	0	0	1.0
27	73.79586792	0	0	0	0	0	1.0
28	73.79586792	0	0	0	0	0	1.0
[LeftUpLeg]
23	91.21989441	0	-26.64850616	1.07367444	-5.018997192	0.837084949	1.0
24	91.21989441	0	-26.64850616	1.057917118	-5.019085407	0.8382259607	1.0
25	91.21989441	0	-26.64850616	1.038048506	-5.01750803	0.8294115067	1.0
26	91.21989441	0	-26.64850616	1.01052773	-5.014017105	0.8040777445	1.0
27	91.21989441	0	-26.64850616	0.9834530354	-5.004917145	0.776789844	1.0
28	91.21989441	0	-26.64850616	0.9587177634	-4.993537903	0.7513928413	1.0
[LeftLeg]
23	402.8824463	0	0	0	0	11.07203484	1.0
24	402.8824463	0	0	0	0	11.06950855	1.0
25	402.8824463	0	0	0	0	11.0724287	1.0
26	402.8824463	0	0	0	0	11.08487129	1.0
27	402.8824463	0	0	0	0	11.09696865	1.0
28	402.8824463	0	0	0	0	11.10694981	1.0
[LeftFoot]
23	435.9781189	0	0	-8.089084625	-0.8419421911	-12.74847412	1.0
24	435.9781189	0	0	-8.076242447	-0.820440948	-12.74319839	1.0
25	435.9781189	0	0	-8.064659119	-0.7948323488	-12.73938847	1.0
26	435.9781189	0	0	-8.054358482	-0.7612921596	-12.73805618	1.0
27	435.9781189	0	0	-8.043768883	-0.7301319838	-12.73612976	1.0
28	435.9781189	0	0	-8.034012794	-0.7022225857	-12.73364067	1.0
[LeftToeBase]
23	183.1846619	0	0	0	0	0.8501445055	1.0
24	183.1846619	0	0	0	0	0.8483498096	1.0
25	183.1846619	0	0	0	0	0.847689569	1.0
26	183.1846619	0	0	0	0	0.8479473591	1.0
27	183.1846619	0	0	0	0	0.8486042023	1.0
28	183.1846619	0	0	0	0	0.8505358696	1.0
[LeftToeBaseEnd]
23	73.79586792	0	0	0	0	0	1.0
24	73.79586792	0	0	0	0	0	1.0
25	73.79586792	0	0	0	0	0	1.0
26	73.79586792	0	0	0	0	0	1.0
27	73.79586792	0	0	0	0	0	1.0
28	73.79586792	0	0	0	0	0	1.0
[EndOfFile]
